<svg xmlns="http://www.w3.org/2000/svg" width="213.816" height="141.586" viewBox="0 0 213.816 141.586"><path fill-rule="evenodd" clip-rule="evenodd" fill="#333" d="M171.806 3.276c2.608 2.99 7.746 1.204 10.57 4.55 1.695 2.01 1.628 2.786 2.033 5.392.45 2.91.212 32.507.212 36.97 0 4.82.203 10.103-.036 14.865-.596 11.823-8.782 8.85-9.66 12.606-.664 2.848 2.265 3.018 4.374 2.848 4.925-.397 9.205-.738 14.222-.724 4.92.014 9.624.564 14.44.67 1.063.024 2.457.11 3.246-.692.65-.66.826-1.93.3-2.756-1.095-1.724-3.737-1.61-5.246-2.208-5.424-2.15-5.815-1.517-7.566-7.29-.907-2.996-.477-39.363-.477-44.075 0-6.565-.873-15 4.487-17.762 2.014-1.037 3.12-.923 4.878-2.617L207.43.795c-1.59-1.148-2.454-.772-4.355-.564-1.676.183-3.183.234-4.885.29-1.61.054-2.993.254-4.668.29l-10.406.04c-1.722-.022-3.026-.3-4.67-.375-2.922-.13-6.983-1.93-6.64 2.8zm17.178 10.173c.532 13.616.236 31.273.213 45.233-.008 5.454.367 13.168-5.053 16.273-1.58.906-1.513.594-.615-.59 2.213-2.918 2.65-4.75 3.09-8.558.66-5.687.33-41.608.31-50.66-.01-3.583-.685-6.59-3.16-9.15a4.617 4.617 0 0 0-.637-.547c-1.385-.998-2.055-1.645.316-.614 3.386 1.474 5.392 4.976 5.534 8.613zM33.358 38.944c-1.995-.36-3.158.545-2.398 2.55.408 1.08 1.377 1.647 2.772 2.198 1.594.628 4.07 1.077 5.833 1.142 4.19.154 8.624.028 12.382-1.563 6.383-2.7 11.585-7.79 13.287-14.74.135-.55.306-.714.404-1.28.094-.547.063-1.002.2-1.562.548-2.28.277-7.387-.454-9.63-1.272-3.9-2.11-5.893-5.113-8.878C54.857 1.796 47.066.14 39.354.016 34.82-.057 30.57.704 26.188.824c-5.852.163-14.44.335-20.284-.652-2.11-.356-4.56-.26-4.408 2.46C1.606 4.618 4.38 5.014 6 5.266c6.862 1.07 7.375 7.67 7.382 13.494v42.26c0 4.06.16 8.175-2.576 11.38-2.39 2.802-8.13 3.22-7.022 6.778.6 1.928 3.957 1.433 5.582 1.23 5.762-.726 14.326-1.07 20.008-.443 1.793.198 4.604.615 6.374.61 2.23-.01 3.883-1.647 2.622-3.682-1.236-1.996-6.393-1.78-8.977-5.07-2.407-3.066-2.158-7.95-2.166-11.864-.03-13.696-.223-28.584.014-42.047.062-3.472-.246-9.448 2.396-11.63C34.52 2.245 51.67 5.88 51.696 23.22c.008 5.628-1.185 11.88-6.522 14.547-4 1.998-7.583 1.942-11.816 1.178zM53.05 11.007c1.81 1.938 3.752 6.315 4.046 8.99.407 3.72.217 7.883-1.53 11.162-1.473 2.766-4.804 7.212-7.962 8.22-1.365.435-.532-.43.03-.87 1.608-1.257 2.75-1.875 3.937-3.922 3.4-5.86 3.562-12.708 1.16-19.014-.535-1.41-1.232-2.673-1.974-3.967-2.02-3.524-4.128-4.21-6.675-6.45-.69-.606-.336-.854.484-.618 2.556.734 6.707 4.56 8.486 6.467zm-35.088 9.24L17.95 59.32c-.044 5.66.338 12.47-5.12 15.522-.656.366-1.083-.22-.52-.658 1.534-1.192 2.576-5.026 2.885-6.78.75-4.253.38-39.057.38-45.883 0-4.718.582-8.936-1.112-12.892-.5-1.168-1.397-2.574-2.39-3.384-.37-.302-.333-.622.2-.43 6.435 2.34 5.684 11.88 5.69 15.433zm71.855 7.016c1.07 1.47 2.15 4.304 2.594 5.33l15.41 34.06c.98 2.13 2.217 4.588 3.057 6.748.514 1.322 2.378 5.85 3.644 6.254 2.584.825 3.96-3.788 4.863-5.51 1.183-2.26 2.295-4.627 3.433-6.936 4.33-8.783 9.354-19.425 13.74-27.915l5.127-10.4c.51-.984 1.272-2.748 2.492-2.61.86 1.428 1.35 19.825 1.48 22.845.174 4.04.342 8.048.407 12.104.052 3.273.812 8.058-1.137 10.86-1.448 2.08-6.44 3.767-6.674 5.69-.51 4.235 4.604 2.487 8.972 2.15 5.324-.413 12.23-.247 17.634.39 1.497.176 3.64.866 4.816-.46.984-1.11.806-3.39-1.06-3.867-5.223-1.334-8.46-3.66-8.866-9.673-.064-.932-.27-1.61-.3-2.532l-.158-9.354c-.078-3.972-.328-7.965-.383-11.892-.114-8.1-.464-16.134-.533-24.207-.03-3.317-.42-8.008 1.775-10.648.788-.948 2.632-1.905 3.842-2.352 1.092-.403 3.87-1.046 4.253-1.88.558-3.053-.597-3.573-3.39-3.407-3.124.186-5.874 1.018-9.612.5-4.16-.58-4.39-1.653-6.7 2.762-1.555 2.975-3 6.308-4.517 9.264l-13.845 27.967c-1.41 2.894-3.002 6.477-4.588 9.237-1.277 2.225-2.872 6.698-4.587 8.67-.612.702-1.335.49-1.78-.284-2.2-3.825-10.56-22.408-11.945-25.386-.983-2.114-2.154-4.387-3.04-6.5-.927-2.205-2.078-4.325-3.018-6.538L95.084 6.547c-.76-1.493-2.138-5.35-3.475-6.068-1.662-.895-2.234-.186-3.832-.044-11.29 1.003-16.476-2.385-16.37 1.76.09 3.52 4.656 1.11 8.3 6.157 4.387 6.072 2.753 18.66 2.63 25.697-.106 6.052-.745 12.25-.883 18.262-.11 4.77-.766 12.63-2.545 16.86-1.108 2.634-1.985 3.68-4.127 5.413-1.576 1.275-5.352 2.72-3.34 5.29 1.02 1.304 6.492.064 8.257-.02 2.662-.123 7.19-.264 9.745.076 1.628.218 7.382 1.102 8.484.166.844-.717.816-2.49.084-3.4-.634-.792-2.428-1.138-3.387-1.508-6.35-2.453-7.426-5.014-7.537-11.833-.17-10.4.716-22.344.946-32.914.02-.874-.065-1.697.026-2.426.18-1.458.72-2.173 1.755-.75zM80.605 4.44c2.06.894 4.965 4.18 5.816 5.27 5.02 6.415 9.74 18.503 13.133 26.16l12.18 27.102c.712 1.633 2.78 5.44 3.37 7.83.495 2.012-.96 2.54-1.765 1.063-2.146-3.935-10.744-23.256-11.915-25.732-.648-1.37-1.38-3-1.958-4.414-1.592-3.886-4.444-9.48-6.047-13.313-2.373-5.673-5.287-11.994-8.32-17.38-1.695-3.012-3.893-4.892-5.08-5.917-1.31-1.127-.56-1.166.587-.67zm66.158 71.04c-.84.53-.982.212-.486-.542.97-1.477 1.668-2.033 1.966-4.147.182-1.284.14-3.123.17-4.463.235-10.463-2.803-46.856-.935-52.46.268-.808.837-3.56 1.623-5.057 1.053-2 1.03-.51.89.7-.094.82-.234 1.68-.29 2.39-1.057 13.547.396 26.177.57 39.563.037 2.756.4 5.59.44 8.495.07 5.01 1.156 12.302-3.947 15.522zm-68.907-.27c.736-.664 1.956-1.603 3.246-4.72 1.663-4.022.677-7.526 2.105-7.663.493 2.524.87 6.796.085 9.216-.7 2.152-2.735 3.67-4.97 4.105-1.29.253-1.56.05-.466-.937z"/><path fill-rule="evenodd" clip-rule="evenodd" fill="#F00" d="M22.867 136.11H15.28V97.767h7.587c2.99 0 5.653.46 7.99 1.38a18.26 18.26 0 0 1 6.153 3.967c1.687 1.725 3.027 3.813 4.024 6.266a19.99 19.99 0 0 1 1.495 7.588c0 2.645-.5 5.184-1.496 7.617-.997 2.434-2.337 4.494-4.024 6.18a17.49 17.49 0 0 1-6.152 3.996c-2.338.9-5 1.35-7.99 1.35zm-5.06-36.044v33.746h5.003c5.02.04 9.122-1.513 12.303-4.656 3.18-3.143 4.772-7.205 4.772-12.187 0-4.907-1.59-8.95-4.772-12.13-3.18-3.182-7.282-4.772-12.303-4.772h-5.002v-.002zm51.395-2.3v2.3H53.335v13.912h15.522v2.3H53.335v17.534h15.867v2.3H50.806V97.766h18.396zm27.595 4.944l-1.84 1.552c-.765-1.418-1.79-2.558-3.075-3.42-1.284-.862-2.77-1.293-4.456-1.293-2.184 0-3.918.69-5.202 2.068-1.284 1.38-1.926 3.066-1.926 5.06 0 1.57.402 2.855 1.207 3.85.805.998 2.644 2.186 5.52 3.566 3.64 1.8 5.7 2.846 6.178 3.133.48.287.968.584 1.466.89 1.417 1.036 2.452 2.147 3.103 3.336.652 1.188.978 2.548.978 4.08 0 3.182-1.168 5.846-3.506 7.992s-5.155 3.22-8.45 3.22c-1.802 0-3.44-.317-4.916-.95-1.475-.632-2.808-1.657-3.995-3.075a11.457 11.457 0 0 1-1.495-1.983 9.863 9.863 0 0 1-.977-2.214l2.185-1.035c.192.613.48 1.265.862 1.955.384.69.786 1.265 1.207 1.725a8.093 8.093 0 0 0 3.162 2.443 9.89 9.89 0 0 0 4.025.835c2.607.038 4.8-.796 6.583-2.5 1.782-1.707 2.673-3.824 2.673-6.354 0-1.264-.317-2.395-.95-3.39-.63-.998-1.56-1.88-2.787-2.646a297.8 297.8 0 0 1-1.984-1.006c-.862-.44-2.577-1.313-5.146-2.616-2.146-1.035-3.622-1.878-4.426-2.53a8.347 8.347 0 0 1-1.955-2.24c-.46-.69-.777-1.39-.95-2.1a9.6 9.6 0 0 1-.258-2.27c0-2.798.92-5.078 2.76-6.842 1.838-1.763 4.196-2.663 7.07-2.702 1.955 0 3.747.47 5.375 1.408 1.63.94 2.944 2.29 3.94 4.054zm10.233-4.944h2.53v38.345h-2.53V97.767zm32.94 22.248v-2.3h16.098a25.213 25.213 0 0 1-1.035 6.842c-.652 2.184-1.61 4.1-2.875 5.75a15.804 15.804 0 0 1-6.266 4.828c-2.49 1.073-5.212 1.61-8.163 1.61-5.673 0-10.407-1.858-14.2-5.576-3.795-3.717-5.673-8.432-5.635-14.142 0-5.634 1.926-10.34 5.778-14.114 3.852-3.775 8.594-5.663 14.23-5.663 2.26 0 4.35.335 6.266 1.005 1.915.67 3.83 1.715 5.747 3.133a22.826 22.826 0 0 1 2.5 2.3c.71.766 1.41 1.61 2.1 2.53l-2.013 1.608a18.135 18.135 0 0 0-1.667-2.213 22.744 22.744 0 0 0-2.01-2.04 17.852 17.852 0 0 0-5.146-2.96 16.545 16.545 0 0 0-5.835-1.064c-4.906 0-9.026 1.704-12.36 5.115-3.335 3.41-4.983 7.57-4.945 12.475-.038 4.867 1.582 8.968 4.858 12.303 3.277 3.334 7.368 5.002 12.274 5.002 2.72.038 5.29-.527 7.704-1.696 2.414-1.17 4.292-2.77 5.634-4.8.69-1.074 1.265-2.34 1.725-3.795.46-1.456.728-2.836.805-4.14h-13.57zm26.848 16.097h-2.53V97.365l32.195 33.67V97.765h2.53v39.322l-32.195-33.67v32.693z"/><path clip-rule="evenodd" fill="none" stroke="#333" stroke-width="3" stroke-miterlimit="22.926" d="M213.816 90.586H.5"/></svg>