<?xml version="1.0" encoding="utf-8"?>
<!-- Generator: Adobe Illustrator 17.0.0, SVG Export Plug-In . SVG Version: 6.00 Build 0)  -->
<!DOCTYPE svg PUBLIC "-//W3C//DTD SVG 1.1//EN" "http://www.w3.org/Graphics/SVG/1.1/DTD/svg11.dtd">
<svg version="1.1" id="Layer_1" xmlns="http://www.w3.org/2000/svg" xmlns:xlink="http://www.w3.org/1999/xlink" x="0px" y="0px"
	 width="213.816px" height="141.586px" viewBox="0 0 213.816 141.586" enable-background="new 0 0 213.816 141.586"
	 xml:space="preserve">
<path fill-rule="evenodd" clip-rule="evenodd" fill="#333333" d="M171.806,3.276c2.608,2.99,7.746,1.204,10.57,4.55
	c1.695,2.009,1.628,2.786,2.033,5.392c0.452,2.909,0.213,32.507,0.213,36.971c0,4.819,0.203,10.102-0.036,14.864
	c-0.596,11.823-8.782,8.851-9.659,12.606c-0.665,2.849,2.264,3.019,4.373,2.849c4.925-0.397,9.205-0.738,14.222-0.724
	c4.919,0.014,9.624,0.564,14.439,0.67c1.064,0.024,2.458,0.11,3.247-0.692c0.65-0.661,0.826-1.93,0.301-2.756
	c-1.096-1.724-3.738-1.609-5.247-2.208c-5.424-2.151-5.815-1.517-7.566-7.29c-0.907-2.996-0.477-39.363-0.477-44.075
	c0-6.565-0.872-15.001,4.488-17.762c2.014-1.038,3.121-0.924,4.878-2.618l-0.155-2.258c-1.59-1.148-2.454-0.772-4.355-0.564
	c-1.676,0.182-3.183,0.233-4.885,0.289c-1.61,0.054-2.993,0.254-4.668,0.29L183.116,0.85c-1.722-0.022-3.026-0.301-4.669-0.375
	C175.524,0.345,171.463-1.455,171.806,3.276L171.806,3.276z M188.984,13.449c0.532,13.617,0.236,31.274,0.213,45.234
	c-0.008,5.454,0.367,13.168-5.053,16.273c-1.58,0.906-1.513,0.594-0.615-0.59c2.214-2.918,2.65-4.75,3.091-8.558
	c0.659-5.687,0.331-41.608,0.31-50.659c-0.009-3.584-0.685-6.59-3.16-9.151c-0.209-0.217-0.422-0.392-0.637-0.547
	c-1.385-0.999-2.055-1.646,0.316-0.615C186.836,6.31,188.842,9.812,188.984,13.449L188.984,13.449z M33.358,38.945
	c-1.995-0.36-3.158,0.545-2.398,2.551c0.408,1.079,1.377,1.646,2.772,2.197c1.594,0.628,4.07,1.077,5.833,1.142
	c4.189,0.154,8.624,0.028,12.382-1.563c6.383-2.7,11.585-7.789,13.287-14.739c0.135-0.551,0.306-0.715,0.404-1.282
	c0.094-0.546,0.063-1.001,0.199-1.561c0.549-2.281,0.278-7.387-0.453-9.63c-1.272-3.901-2.111-5.893-5.113-8.878
	c-5.415-5.386-13.206-7.042-20.918-7.166c-4.533-0.073-8.782,0.688-13.165,0.808C20.336,0.987,11.748,1.159,5.904,0.172
	c-2.111-0.356-4.559-0.26-4.408,2.459c0.109,1.988,2.885,2.384,4.503,2.636c6.863,1.069,7.376,7.67,7.383,13.494v42.258
	c0,4.06,0.16,8.176-2.576,11.381c-2.391,2.802-8.13,3.219-7.022,6.778c0.599,1.928,3.957,1.433,5.582,1.229
	c5.762-0.725,14.326-1.069,20.008-0.442c1.793,0.198,4.604,0.615,6.374,0.609c2.231-0.008,3.883-1.646,2.622-3.681
	c-1.236-1.996-6.393-1.781-8.977-5.071c-2.407-3.065-2.158-7.95-2.166-11.863c-0.03-13.695-0.223-28.583,0.014-42.046
	c0.061-3.472-0.247-9.448,2.395-11.631c4.883-4.036,22.034-0.401,22.06,16.939c0.008,5.627-1.185,11.878-6.522,14.546
	C41.173,39.765,37.591,39.709,33.358,38.945L33.358,38.945z M53.05,11.007c1.809,1.938,3.752,6.315,4.046,8.99
	c0.407,3.719,0.217,7.883-1.53,11.162c-1.473,2.767-4.804,7.213-7.962,8.22c-1.365,0.436-0.532-0.43,0.029-0.869
	c1.609-1.257,2.752-1.875,3.938-3.922c3.399-5.859,3.561-12.708,1.16-19.014c-0.536-1.409-1.233-2.673-1.975-3.967
	c-2.02-3.524-4.128-4.211-6.675-6.45c-0.691-0.606-0.337-0.854,0.483-0.618C47.12,5.274,51.271,9.1,53.05,11.007L53.05,11.007z
	 M17.962,20.247L17.95,59.32c-0.044,5.66,0.338,12.471-5.12,15.522c-0.656,0.366-1.083-0.22-0.521-0.658
	c1.535-1.192,2.577-5.026,2.886-6.78c0.751-4.253,0.38-39.057,0.38-45.883c0-4.719,0.582-8.937-1.112-12.893
	c-0.5-1.168-1.397-2.574-2.39-3.384c-0.369-0.302-0.333-0.622,0.201-0.429C18.708,7.153,17.957,16.694,17.962,20.247L17.962,20.247z
	 M89.817,27.263c1.07,1.469,2.151,4.304,2.594,5.33l15.409,34.06c0.981,2.129,2.217,4.588,3.057,6.748
	c0.514,1.321,2.378,5.849,3.644,6.253c2.583,0.825,3.96-3.788,4.862-5.511c1.183-2.259,2.295-4.626,3.433-6.935
	c4.33-8.783,9.354-19.425,13.74-27.915l5.127-10.399c0.511-0.985,1.272-2.749,2.492-2.61c0.86,1.427,1.35,19.824,1.481,22.844
	c0.173,4.041,0.341,8.048,0.406,12.104c0.052,3.273,0.812,8.058-1.137,10.86c-1.448,2.08-6.441,3.767-6.674,5.689
	c-0.512,4.236,4.603,2.488,8.971,2.15c5.324-0.412,12.229-0.246,17.634,0.391c1.497,0.176,3.639,0.866,4.816-0.46
	c0.984-1.109,0.806-3.39-1.061-3.867c-5.222-1.334-8.458-3.659-8.865-9.673c-0.064-0.932-0.269-1.61-0.301-2.532l-0.157-9.354
	c-0.078-3.972-0.328-7.965-0.383-11.892c-0.114-8.1-0.464-16.134-0.533-24.207c-0.029-3.317-0.42-8.008,1.775-10.648
	c0.788-0.947,2.632-1.904,3.842-2.351c1.093-0.403,3.871-1.046,4.254-1.881c0.558-3.052-0.597-3.572-3.391-3.406
	c-3.123,0.185-5.873,1.017-9.611,0.498c-4.161-0.578-4.392-1.652-6.7,2.763c-1.556,2.975-3.002,6.308-4.518,9.264l-13.845,27.967
	c-1.409,2.894-3.002,6.477-4.588,9.237c-1.277,2.225-2.872,6.698-4.587,8.669c-0.612,0.703-1.335,0.491-1.78-0.283
	c-2.2-3.825-10.56-22.408-11.945-25.386c-0.983-2.114-2.154-4.387-3.041-6.501c-0.926-2.204-2.077-4.324-3.017-6.537L95.084,6.547
	c-0.761-1.493-2.138-5.349-3.475-6.068c-1.661-0.894-2.233-0.185-3.831-0.043C76.489,1.439,71.302-1.949,71.409,2.195
	c0.09,3.521,4.655,1.111,8.3,6.158c4.386,6.072,2.752,18.66,2.629,25.697c-0.106,6.052-0.745,12.25-0.883,18.262
	c-0.111,4.77-0.766,12.629-2.545,16.859c-1.108,2.635-1.985,3.681-4.127,5.414c-1.576,1.275-5.352,2.721-3.34,5.291
	c1.021,1.303,6.492,0.063,8.257-0.02c2.662-0.124,7.189-0.265,9.745,0.075c1.628,0.217,7.382,1.101,8.484,0.165
	c0.845-0.717,0.817-2.489,0.085-3.401c-0.634-0.791-2.428-1.137-3.387-1.507c-6.349-2.453-7.426-5.014-7.537-11.833
	c-0.169-10.4,0.716-22.344,0.946-32.914c0.019-0.875-0.065-1.698,0.026-2.427C88.241,26.556,88.781,25.841,89.817,27.263
	L89.817,27.263z M80.605,4.44c2.06,0.894,4.965,4.181,5.816,5.27c5.02,6.415,9.738,18.503,13.132,26.159l12.18,27.103
	c0.712,1.633,2.779,5.441,3.369,7.831c0.496,2.011-0.959,2.54-1.764,1.062c-2.146-3.935-10.744-23.256-11.915-25.732
	c-0.648-1.369-1.379-3.001-1.958-4.414c-1.592-3.885-4.444-9.48-6.047-13.312c-2.373-5.673-5.287-11.994-8.319-17.38
	c-1.696-3.012-3.894-4.892-5.082-5.917C78.707,3.983,79.459,3.944,80.605,4.44L80.605,4.44z M146.763,75.48
	c-0.841,0.53-0.982,0.212-0.486-0.542c0.969-1.477,1.668-2.033,1.966-4.147c0.182-1.285,0.141-3.124,0.171-4.464
	c0.234-10.463-2.804-46.856-0.936-52.46c0.268-0.808,0.837-3.561,1.623-5.057c1.052-1.999,1.03-0.511,0.89,0.699
	c-0.095,0.82-0.235,1.682-0.291,2.392c-1.057,13.546,0.396,26.176,0.571,39.562c0.036,2.756,0.399,5.591,0.44,8.495
	C150.78,64.967,151.866,72.26,146.763,75.48L146.763,75.48z M77.856,75.211c0.736-0.665,1.956-1.604,3.246-4.721
	c1.663-4.022,0.677-7.526,2.105-7.663c0.493,2.524,0.871,6.796,0.085,9.216c-0.7,2.152-2.735,3.67-4.97,4.105
	C77.031,76.401,76.761,76.198,77.856,75.211z"/>
<path fill-rule="evenodd" clip-rule="evenodd" fill="#FF0000" d="M22.867,136.111h-7.588V97.766h7.588c2.99,0,5.653,0.46,7.991,1.38
	c2.338,0.92,4.389,2.242,6.152,3.967c1.687,1.725,3.027,3.813,4.024,6.266c0.996,2.452,1.495,4.982,1.495,7.589
	c0,2.645-0.498,5.184-1.495,7.617c-0.997,2.434-2.337,4.494-4.024,6.181c-1.763,1.763-3.814,3.095-6.152,3.995
	C28.52,135.661,25.857,136.111,22.867,136.111L22.867,136.111z M17.808,100.066v33.746h5.002c5.021,0.039,9.122-1.513,12.303-4.656
	c3.181-3.143,4.772-7.205,4.772-12.187c0-4.906-1.591-8.949-4.772-12.13c-3.181-3.181-7.282-4.771-12.303-4.771H17.808
	L17.808,100.066z M69.202,97.766v2.3H53.335v13.912h15.522v2.3H53.335v17.534h15.867v2.3H50.806V97.766H69.202L69.202,97.766z
	 M96.797,102.71l-1.839,1.552c-0.766-1.418-1.791-2.558-3.076-3.42c-1.284-0.862-2.769-1.293-4.456-1.293
	c-2.184,0-3.918,0.69-5.202,2.069c-1.284,1.38-1.926,3.066-1.926,5.059c0,1.572,0.402,2.856,1.207,3.852
	c0.805,0.997,2.644,2.185,5.519,3.565c3.641,1.801,5.701,2.846,6.179,3.133c0.479,0.287,0.968,0.584,1.466,0.891
	c1.418,1.035,2.453,2.146,3.104,3.335c0.652,1.188,0.978,2.548,0.978,4.081c0,3.181-1.169,5.845-3.507,7.991
	c-2.338,2.146-5.155,3.219-8.451,3.219c-1.801,0-3.44-0.316-4.915-0.949c-1.475-0.632-2.808-1.657-3.995-3.075
	c-0.575-0.613-1.073-1.274-1.495-1.983c-0.422-0.71-0.747-1.447-0.977-2.214l2.184-1.035c0.192,0.613,0.48,1.265,0.862,1.955
	c0.384,0.69,0.786,1.265,1.207,1.725c0.843,1.073,1.897,1.888,3.162,2.443c1.265,0.556,2.606,0.834,4.025,0.834
	c2.606,0.038,4.8-0.796,6.582-2.501c1.782-1.706,2.673-3.823,2.673-6.353c0-1.265-0.317-2.396-0.949-3.392
	c-0.632-0.997-1.562-1.878-2.788-2.645c-0.46-0.23-1.121-0.566-1.983-1.006c-0.862-0.441-2.577-1.313-5.146-2.616
	c-2.146-1.035-3.622-1.878-4.426-2.529c-0.805-0.652-1.456-1.399-1.955-2.242c-0.46-0.69-0.776-1.39-0.949-2.099
	c-0.172-0.709-0.258-1.465-0.258-2.27c0-2.798,0.92-5.078,2.759-6.842c1.839-1.763,4.197-2.663,7.071-2.702
	c1.955,0,3.747,0.47,5.375,1.408C94.488,99.596,95.801,100.947,96.797,102.71L96.797,102.71z M107.03,97.766h2.529v38.345h-2.529
	V97.766L107.03,97.766z M139.971,120.014v-2.299h16.097c-0.038,2.376-0.383,4.657-1.035,6.841c-0.652,2.184-1.61,4.101-2.875,5.749
	c-1.686,2.146-3.775,3.756-6.266,4.829c-2.491,1.073-5.212,1.61-8.163,1.61c-5.672,0-10.406-1.858-14.2-5.576
	c-3.794-3.717-5.672-8.432-5.634-14.142c0-5.634,1.926-10.339,5.778-14.114c3.852-3.775,8.594-5.663,14.229-5.663
	c2.261,0,4.35,0.336,6.267,1.006c1.916,0.671,3.832,1.715,5.748,3.133c0.958,0.767,1.792,1.533,2.501,2.3
	c0.709,0.766,1.409,1.609,2.099,2.529l-2.013,1.609c-0.46-0.728-1.016-1.466-1.667-2.213c-0.652-0.748-1.322-1.427-2.011-2.041
	c-1.534-1.264-3.249-2.252-5.145-2.96c-1.897-0.709-3.843-1.063-5.836-1.063c-4.906,0-9.026,1.705-12.36,5.116
	c-3.335,3.411-4.983,7.569-4.945,12.475c-0.038,4.867,1.582,8.968,4.858,12.303c3.277,3.334,7.368,5.002,12.274,5.002
	c2.721,0.038,5.289-0.527,7.704-1.696c2.414-1.169,4.292-2.769,5.634-4.8c0.69-1.073,1.265-2.338,1.725-3.794
	c0.46-1.456,0.728-2.836,0.805-4.139H139.971L139.971,120.014z M166.818,136.111h-2.529V97.364l32.194,33.669V97.766h2.529v39.322
	l-32.194-33.669V136.111z"/>
<line fill-rule="evenodd" clip-rule="evenodd" fill="none" stroke="#333333" stroke-width="3" stroke-miterlimit="22.9256" x1="213.816" y1="90.586" x2="0.5" y2="90.586"/>
</svg>
